<svg xmlns="http://www.w3.org/2000/svg" viewBox="0 0 45 45"><title>facebookAsset 7</title><g id="Layer_2" data-name="Layer 2"><g id="Layer_1-2" data-name="Layer 1"><circle cx="22.5" cy="22.5" r="22.5" fill="azure"/><path d="M24.6,13.33a4.36,4.36,0,0,0-2.47.76,3.71,3.71,0,0,0-1.48,2.47,7.78,7.78,0,0,0-.11,1.27c0,.66,0,1.33,0,2v.25H17.71v3.3h2.81v8.3H24V23.39h2.8c.15-1.1.29-2.19.43-3.32H23.94s0-1.64,0-2.35c0-1,.61-1.27,1.39-1.3.57,0,1.13,0,1.7,0h.24v-3c-.31,0-.62-.07-.94-.09C25.77,13.35,25.18,13.32,24.6,13.33Z" fill="#4298ff"/></g></g></svg>