<?xml version="1.0" encoding="utf-8"?>
<!-- Generator: Adobe Illustrator 23.0.0, SVG Export Plug-In . SVG Version: 6.00 Build 0)  -->
<svg version="1.1" id="Layer_1" xmlns="http://www.w3.org/2000/svg" xmlns:xlink="http://www.w3.org/1999/xlink" x="0px" y="0px"
	 viewBox="0 0 443.6 208" style="enable-background:new 0 0 443.6 208;" xml:space="preserve">
<style type="text/css">
	.st0{fill:#3366CC;}
	.st1{fill:#37B9FC;}
</style>
<title>phone one black logo</title>
<g>
	<path class="st0" d="M111.5,46.5c-2.4-0.8-4.8-0.4-7.3-0.3l-0.1,0.5l0.8,0.5h0.1c0,0.1,0,0.3,0,0.5h-1.6c-3.2-1.5-6.7-1.9-10.3-2.2
		c-0.2-0.1-0.5-0.4-0.7-0.4c-4.7,0-9.6,0-14.3,0c-0.2,0-0.5,0.3-0.7,0.4l-3.2,0.1L68.8,46c-1.6,0.3-3.4,0.4-5,0.8
		c-2.3,0.5-4.7,1.1-6.6,2.7c-5.6,4.9-9.1,10.9-8.4,18.7c0.1,1,0.2,2,0.3,3.4c4-3.7,9.2-5.6,14.5-5.3c13.4,0.1,26.8,0,40.2,0h3.1
		c1.5-6.2,1.6-12.1-2.2-17.4l0.5-1h0.3l0.1,0l0.5,0.5c2.4,2.4,3.2,5.5,3.2,8.8c0,3.7,0.1,7.3,0.1,11c0,18.1,0.1,36.2,0.1,54.3
		c0,1,0.1,1.9,0.1,3c1.1,0,1.7,0,2.5,0c2.8-0.1,5.6-0.1,8.3-0.4c5.5-0.5,9-4.3,9.1-9.7c0.1-11.4,0.3-22.8,0.4-34.2
		c0-4.8,0.4-9.8,0-14.5C129.1,57.4,122.8,48,111.5,46.5z M95.4,60.2c-2,0.1-4.1,0-6.2,0c-2.2,0-4.5,0.1-6.8,0c-1.4,0-2.4-1-2.7-2.3
		c-0.3-1.1,0.1-2.3,1.1-2.9c0.6-0.4,1.3-0.7,2-0.7c4.3-0.1,8.5-0.1,12.7,0c2,0,3.1,1.3,3.1,3C98.6,59.1,97.4,60.1,95.4,60.2z"/>
	<path class="st1" d="M261.3,123.9c2.2-0.3,4.4-1,6.3-2.1c5.1-3.1,8.5-7.3,8.4-13.6c0-3.7,0-7.3,0-11c0-12,0-23.9-0.1-35.9
		c-0.5-0.3-1.1-0.5-1.6-0.6c-5.2,0-10.5,0-15.8,0c-0.5,0.1-1.1,0.2-1.5,0.4c-4.8,0.7-9.4,2.1-12.6,6.1c-2.5,3.1-4.6,6.4-4.6,10.7
		c0.1,7.7,0.1,15.5,0.1,23.2c0.1,0.4,0.2,0.9,0.4,1.3c1,0.2,1.8,0.4,2.8,0.5c7,0,14,0,21,0.1c1.1,0.1,2.1,0.3,3.1,0.5
		c0,1.7,0,3.4,0.1,5.1c0.1,1.4-0.5,2.7-1.5,3.6c-2.6,2.5-5.5,4.4-9.3,4.4c-3.2-0.1-6.5,0-9.7,0H241c0,0.5-0.1,0.7,0,0.9
		c1.8,3.5,5.1,5.9,9,6.7l1.5-0.1c0.5,0.3,1,0.4,1.5,0.5C255.7,124.3,258.5,125.1,261.3,123.9z M266.1,93.8h-18.6
		c-0.1-0.7-0.2-1.3-0.3-1.9c0-3.8,0-7.5,0-11.3c0.1-5.4,3.6-9.2,9-9.5c3.2-0.2,6.5-0.1,9.9-0.1V93.8z"/>
	<path class="st1" d="M386.1,108.6c0.3-1.9,0.5-3.9,0.7-5.9h1.9c12,0,23.9,0,35.9,0c0.5-0.1,1-0.2,1.5-0.5c1.6,0,3.2-0.1,4.8-0.1
		c2.5-0.1,2.6-0.1,2.6-2.5c0-6.6,0.1-13.1,0-19.6c0-5.4-2.3-10.6-6.5-14.2c-3.2-2.6-7.1-4.3-11.1-4.7c-0.5-0.2-1-0.4-1.5-0.5
		c-4.3,0-8.4,0-12.7,0l-5.9-0.1c-1.1-0.6-2.2-0.9-3.2,0.2c0,3,0,5.9,0,8.9c0,7.4,0,14.9-0.1,22.3h-5.9c0-1-0.1-1.9-0.1-2.9
		c0-9.3,0-18.5,0.1-27.8c-0.7-0.3-1.4-0.5-2.1-0.6c-5.4,0-10.9,0-16.3,0.1c-0.7,0.1-1.4,0.2-2,0.4c-7.3,1-12.4,4.8-15.6,11.4
		c-0.6,1-0.9,2.1-1.1,3.2c-0.3,2.9-0.5,5.7-0.5,8.6c-0.1,5.9,0,11.9,0,17.8c-0.1,0.4,0.1,0.6,0.2,0.9c8.3,0,16.6,0,24.9,0
		c1.1,0.1,2.1,0.3,3.1,0.5c0,0.7,0,1.5,0,2.1c0.1,4.1-2,6.9-5,9.2c-2.3,1.8-5.1,1.6-7.8,1.7h-6.1l-5.3-0.3c-0.8-0.6-1.5-0.8-2.1,0.1
		c0.6,1.3,1.3,2.5,2,3.7c2.5,3.2,6.4,5,10.4,5c1,0.8,2.3,0.8,3.3,0l1.1-0.1l4.4-0.5C380.4,123,385.2,115.4,386.1,108.6z M401.4,72.4
		c0.2-0.1,0.5-0.3,0.7-0.3c4.3-0.1,8.5-0.3,12.7-0.3c1.6,0,3.2,0.4,4.7,1c2.8,1.2,4.5,3.9,4.4,6.9c0.2,4.5,0.1,9.2,0.1,14.1h-22.6
		V72.4z M376.2,93.4c-1.9,0.6-14.6,0.7-18.5,0.2c-0.1-0.7-0.2-1.4-0.2-2c0-3.9,0-7.7,0-11.6c0-5.5,2.9-8.4,8.3-8.4
		c3.4-0.1,6.7,0,10.3,0V93.4z"/>
	<path class="st1" d="M314.6,55.4c0.6,0.7,1.5,0.7,2.2,0.1c2.7-1.3,4-3.2,3.5-5.3c-0.4-2.5-2.8-4.3-5.3-4c-2.7,0.3-4,2-3.8,5.1
		C311.3,53.8,312.1,54.7,314.6,55.4z"/>
	<path class="st1" d="M205.1,55.5c0.7,0.7,1.8,0.7,2.6,0c3.9-2,4.4-5.9,1.3-8.3c-1.5-1.2-3.7-1.3-5.3-0.3c-1.3,0.8-2.8,3.4-2.2,4.5
		C202.2,53.1,202.5,55.4,205.1,55.5z"/>
	<path class="st0" d="M56.4,40.3c0.3,0,0.6-0.1,0.8-0.1c1.3-0.3,2.2-1.4,2.3-2.6c0-1.4-1-2.6-2.4-2.7c-1.5-0.4-3.2-0.5-4.7-0.2
		c-4.1,0.9-7.8,2.8-10.9,5.6c-5.5,4.8-7.1,10.6-6.1,17.5c0.1,1,1,1.8,1.9,1.8c2.4,0.3,3.7-1,3.6-3.7c-0.2-3.4,0.9-6.8,3-9.5
		c2.5-3,5.9-4.9,9.7-5.7L56.4,40.3z"/>
	<path class="st1" d="M395.4,172.2c-3.9,0-7.7,0.1-11.6,0.5c-4.7,0.5-7.3,1.9-7.8,5.8h40.2c1.2,0,2.3,0.1,3.5,0
		c1.7,0,3.5-0.2,5.2-0.4c3.6-0.5,6.1-2.5,8.1-5.9h-2.8C418.6,172.2,407,172.1,395.4,172.2z"/>
	<path class="st0" d="M51.8,26.1l3.9-0.5c0.6,0,1.3-0.1,1.8-0.2c1.2-0.1,2.1-1.1,2.3-2.3c0.2-1.2-0.7-2.3-1.8-2.5L55.7,20
		c-1.1-0.5-2.2-0.5-3,0.1c-7.8,0.9-15.3,4.3-21.1,9.6c-4.3,4-7.1,8.8-9.2,14.1c-1.7,4.3-1.5,8.7-1.9,13.1c-0.2,1.5,0.7,2.1,2,2.3
		c0.5,0.6,1.4,0.7,1.9,0.3c0.1-0.1,0.2-0.2,0.3-0.3c0.8-0.5,1.2-1.4,1.2-2.3c0.2-2.7,0.6-5.3,1.1-7.9c1.9-8.8,7.8-16.2,16.1-20.1
		C45.8,27.4,48.7,26.6,51.8,26.1z"/>
	<path class="st0" d="M27.9,20.1c5.5-4.3,11.8-7.3,18.5-9.1c1.3-0.3,2.6-0.5,3.9-0.7l3.4-0.5c1.2-0.1,2.3-0.1,3.5-0.3
		c1.2,0,2.2-0.8,2.6-1.9c0.3-1.2-0.2-2.3-1.3-2.9c-0.9-0.4-1.7-0.8-2.7-1c-0.7-0.4-1.7-0.5-2.6,0.2c-1.7,0.2-3.6,0.4-5.3,0.7
		C37.4,6,27.6,10.8,20,18.2c-4.4,4.3-7.9,9.2-10.6,14.7c-3.1,5.8-4.7,12.3-4.8,18.9c0,1.9,0,4,0,5.9c0,1.4,0.9,1.8,1.9,2.3
		s1.8,0,2.6-0.8c1-0.9,1.5-2.2,1.5-3.6c0.2-3.5,0.7-7,1.4-10.3C14.2,35.4,19.9,26.5,27.9,20.1z"/>
	<path class="st0" d="M116,128.7c-0.4,0-0.7,0-1.1,0c-11.1-0.2-22.3-0.3-33.5-0.5c-2.9,0-5.9,0-8.9,0c-0.1,0.7-0.1,1.2-0.1,1.5
		c0,3.3,0.1,6.7,0.1,10c0,2.8,1.4,5,3.2,7c1.5,1.6,3.8,2.4,6.1,2.2c0.9,0.3,1.6,0.4,2.5,0.5c7.9,0,15.9,0,23.9,0
		c0.7-0.1,1.5-0.3,2.2-0.5c1.5-0.4,3.1-0.8,4.5-1.3c4.8-1.7,8.8-5.2,11.1-9.8c1.7-3.4,2.8-7,3.1-10.7c0.2-1.3,0.6-2.8-0.4-4.1
		C124.3,128.3,122.8,129,116,128.7z"/>
	<path class="st1" d="M388.1,167.8c4.4-0.3,9,0,13.5,0.1h4.8c0.7,0.2,1.4,0.4,2,0.4c7.3,0.1,14.6,0.1,21.9,0c0.7-0.1,1.4-0.2,2-0.5
		c0.1-0.2,0.4-0.5,0.4-0.7c-0.1-3.8,0-7.5-0.4-11.2c-0.4-3.3-2.7-7.1-7.1-7.2c-1.9,0-3.9-0.4-5.8-0.6H419h-1.1
		c-0.6-0.2-1.2-0.3-1.7-0.4c-3,0-6,0-9.1,0h-3.8c-2.6,0-5.2-0.1-7.7,0c-0.9,0.1-1.7,0.2-2.5,0.5c-4,1-7.7,2.4-10.8,5.3
		c-4.9,4.6-7.5,10.3-7,17.2c0,0.6,0.2,1.1,0.4,2.1C379.2,169.1,383.7,168.1,388.1,167.8z"/>
	<path class="st0" d="M192.6,146.7c-1.6-0.2-3.3-0.4-4.8-0.4c-0.6-0.2-1.1,0.3-1.5,0.6c0.4,0.7,0.9,1.4,1.3,1.9
		c2.7,3.7,4.7,7.4,4.5,12.2c-0.3,6.5-0.2,13-0.4,19.4c-0.2,6.3-0.4,12.6-0.6,18.9c0,1.6,0,3.2,0,4.9c4.8,0.7,9.6,0.5,13.8-1.7
		c3.6-1.9,6.3-4.6,6.4-9.2c0.1-9,0.5-18,0.6-27c0-2.4-0.6-4.8-1.7-7C206.7,152.5,200.1,147.7,192.6,146.7z"/>
	<path class="st1" d="M342.7,146.5c-1-0.6-2.2-0.6-3.2,0l-3.1,0.6c0.3,0.5,0.3,0.7,0.4,0.8c3.2,2,5,5.6,4.9,9.5
		c0.1,15.4,0.3,30.8,0.5,46.1c1.5,1.1,3.3,0.5,4.8,0.5c1.5-0.1,2.9-0.1,4.4,0c4.9,0.7,9-3.7,9.8-7.4c0.6-2.6,0.9-5.3,0.9-8
		c0.1-7.4,0.1-14.9,0.1-22.4c0-0.8-0.1-1.6-0.2-2.4C360.1,154.2,352.2,147.3,342.7,146.5z"/>
	<path class="st0" d="M69.4,194.3c-0.3-3.3-0.4-6.7-0.5-10c-0.1-9.7,0-19.2,0-28.9c0-1.4-0.1-2.7,0-4.1c0.1-0.6-0.3-1.2-0.9-1.3
		c-0.1,0-0.1,0-0.2,0l-2.8-0.5c-0.5,0-1.1-0.1-1.5-0.2c-5.9-1.7-10.3-5.5-13.5-10.5l-0.6-0.9l-0.1,1.1c-0.1,2-0.2,4.2-0.2,6.2
		c-0.1,11.9-0.2,23.7-0.2,35.6c0,1.7,0.1,3.5,0.4,5.2c0.7,3.3,2,6.4,4.2,9c2.8,3.9,6.1,7,10.9,8c1.3,0.3,2.7,0.1,3.8,0.7
		c2.2,1.1,4-0.5,6.7-0.1c-1.1-1.2-1.6-1.7-2.3-2.4C70.6,199.5,69.6,197,69.4,194.3z"/>
	<path class="st1" d="M432.6,177.8c-2.9,2.6-5.7,4.7-9.3,5.1h-13.1h-34.4c0,4.7,0,9.2,0,13.7c0.1,0.4,0.2,0.7,0.4,1
		c1.7,4,4.8,5.7,9.1,5.7H415c0.6,0,1.1,0,1.5-0.1c3.4-1,6.6-2.6,9.4-4.8c5.8-4.9,7.7-11.4,7.5-18.7
		C433.3,179.1,433,178.4,432.6,177.8z"/>
	<path class="st1" d="M305.4,124c0.6,0.2,1.2,0.4,1.7,0.4c5.4,0.1,10.8,0.1,16.1,0c0.7-0.1,1.4-0.2,2-0.5c4.7-0.8,8.4-3.4,11.4-7.1
		c2.2-2.5,3.5-5.7,3.7-9.1c0.1-12,0.1-24,0.2-35.9c0-2.2-1-4.4-2.6-6c-1.7-1.7-3.9-2.4-6.1-3.3l-0.6,0.1c0,0.8-0.1,1.6-0.1,2.4
		c-0.1,13.1-0.1,26.2-0.4,39.3c-0.1,4.3-1.5,8-6,9.7l-2.2,0.4H321c-0.5-0.2-1-0.3-1.5-0.4c-4.4,0-8.8,0-13.2,0
		c-2.4-0.1-3.8-1.7-4.9-3.7s-1.2-4.1-1.3-6.3c0-9.9,0-19.8,0-29.7c0-0.9-0.1-1.7-0.2-2.5c-5.4,0.5-9.1,4.2-9.2,9.3
		c-0.1,9.2-0.1,18.4,0,27.5c0,1.5,0.2,2.8,0.7,4.2C294.2,119.4,298.6,123.4,305.4,124z"/>
	<path class="st1" d="M231.3,107.6c0.3-12,0.2-23.9,0.2-35.9c0-2.1-0.9-4.1-2.4-5.6c-1.7-1.8-4-2.6-6.3-3.4l-0.6,0.1
		c-0.1,5.7-0.3,11.5-0.4,17.2c-0.1,8.2,0,16.5-0.1,24.8c-0.1,4.3-1.5,7.8-5.9,9.4h-19v0.1c-3.1-0.7-4.6-2.9-5.3-5.7
		c-0.3-1.5-0.5-2.8-0.4-4.3c-0.1-8.1,0-16.2-0.1-24.3c0-2.6,0-5.2-0.1-7.8l-0.5-0.1c-4.6,0.8-8.8,4.4-8.8,10.2
		c0.1,8.7,0,17.4,0.1,26.1c-0.1,1.5,0,2.9,0.4,4.3c2.6,6.4,7,10.8,14.2,11.5c0.6,0.2,1.2,0.4,1.7,0.4c5.4,0.1,10.8,0.1,16.1,0
		c0.7-0.1,1.4-0.2,2-0.5c2.8-0.5,5.5-1.6,7.7-3.5C228.3,117.3,231.2,113,231.3,107.6z"/>
	<path class="st0" d="M69.2,130.5c0.3-19.2,0.5-38.5,0.8-57.7c0-1,0-1.9,0-2.7c-0.2-0.2-0.5-0.4-0.8-0.6c-6.8-2.8-12.9-1.3-18.5,2.8
		c-1.5,1-2.5,2.7-2.4,4.5c0.3,17.7,0.5,35.4,0.8,53.2c-0.1,2.4,0.5,4.8,1.6,7c3.8,6.9,9.3,11,17.1,11.9c2,0.8,4.3,0.7,6.4-0.2
		c-0.6-0.8-1.2-1.5-1.8-2.3c-2.6-3.1-3.9-7.1-3.5-11C69,133.7,69.2,132.2,69.2,130.5z"/>
	<path class="st1" d="M330.3,147.3c-2.8-0.3-5.7-0.5-8.5-0.5c-2.7-0.1-5.3,0-8,0v-15.5l-1.9-0.3c-3-0.8-6.2-0.8-9.2,0
		c-2.2,0.3-4.4,0.7-6.2,2.2c-2.1,1.7-3.3,4.4-3.1,7.1c0.1,14.3,0,28.6,0,42.9c0,2.6,0,5.1,1.2,7.5c1.3,2.7,2.4,5.3,4.8,7.3
		c4.5,3.5,9.5,5.9,15.3,6c2,0.9,4.2,0.5,6.2,0.3v-0.6l-0.9-0.3c-4.1-2.1-5.8-5.6-5.9-10.1c-0.2-8.4-0.4-16.8-0.5-25.2
		c0.1-0.3,0.2-0.7,0.3-1l0.7-0.4l7.1-0.1c4.8,0,9.7,0,14.5,0c0.6-0.1,1.2-0.3,1.7-0.5c-0.2-4-0.1-8-0.7-12.1
		C336.9,150.4,334,147.5,330.3,147.3z"/>
	<path class="st0" d="M178.1,146.1l-3.9,0.5h-7.5l-3-0.6c-0.1-0.9-0.2-1.8-0.2-2.7c0-19.1,0-38.1,0-57.2V49.2c0-1-0.1-1.9-0.1-2.8
		c-4.2,0-8-0.2-11.9,0c-5.1,0.4-7.5,2.8-8.6,8.2c0,0.1-0.2,0.3-0.4,0.4v0.9c0.2,0.9,0.4,1.6,0.5,2.5c0.1,5.7,0.1,11.5,0.2,17.2
		c0.1,11.8,0.2,23.7,0.3,35.5c-0.8,0.7-0.8,1.8-0.1,2.6c0,0.5,0,0.9,0,1.4c0.2,23.5,0.3,47.1,0.5,70.7c-0.1,1.4,0,2.7,0.3,4
		c1.6,4.6,4.8,8.6,9.1,11.2c2.9,1.9,6.2,2.9,9.7,3c1.4,0.8,3,0.8,4.4,0l2.7-0.6c-0.7-0.5-1-0.8-1.4-1c-3.5-2.1-5.6-5.2-5.7-9.4
		c-0.1-3,0.1-6.1,0-9.1c-0.1-5.7-0.2-11.4-0.3-17.2c7,0,13.8,0,20.8-0.1c1-0.1,1.9-0.2,2.8-0.5c1.2-2.2,1.1-4.6,1.1-7.1
		C187.5,153.1,183.7,147.8,178.1,146.1z"/>
	<path class="st1" d="M273.3,152.8c-3.9-3.6-9-5.8-14.3-6.1c-1.4,0-3.1-0.3-4.7,0.8c0.5,0.4,0.8,0.6,1.1,0.9c2.5,2,4,5.1,4.2,8.3
		c0.3,5.7,0.3,11.5,0.3,17.2c0,6.6-0.1,13.2-0.3,19.6c-0.1,3-0.4,6.1-0.6,9.1c-0.1,1.1,0.4,1.6,1.5,1.6c3.2,0,6.3,0.2,9.5,0
		c4.9-0.2,8.6-3.5,9.4-7.3c0.6-3,1-6,1.2-9c0.2-2.9-0.1-5.9,0.2-8.9c0.6-4.8,0.3-9.7-0.8-14.4C278.9,160.1,276.6,156,273.3,152.8z"
		/>
	<path class="st1" d="M245.4,193.2c0.2-8,0.1-16.1,0.2-24.1c0.1-6.9,0.2-13.6,0.3-20.5c0-2.3-0.2-2.4-2.4-2.5
		c-4.1-0.1-8.1,0.3-12,1.4c-3.7,1-6.3,4.2-6.5,7.9c0,4.8-0.2,9.7-0.1,14.6c0.1,5.9,0.4,11.9,0.7,17.8c0.1,1.3,0.5,2.4,1.1,3.5
		c1.9,4.2,5.1,7.2,9,9.7c4.5,2.9,9.6,3.1,14.9,2.3c-0.5-0.5-1-1-1.5-1.5C246.5,199.7,245.1,196.5,245.4,193.2z"/>
	<path class="st1" d="M409.7,55.9c2.2,0.2,4.8-2.4,4.9-4.7c0-2.6-2.1-4.8-4.7-4.8c-2.5,0.2-4.6,2.2-4.8,4.7
		C405,53.1,407.6,55.8,409.7,55.9z"/>
</g>
<title>phone one black logo</title>
</svg>
