<svg xmlns="http://www.w3.org/2000/svg" viewBox="0 0 45 45"><title>snapAsset 5</title><g id="Layer_2" data-name="Layer 2"><g id="Layer_1-2" data-name="Layer 1"><circle cx="22.5" cy="22.5" r="22.5" fill="azure"/><path d="M16.16,20.26c-.18-.07-.36-.12-.53-.2A1.57,1.57,0,0,0,14.7,20a1.8,1.8,0,0,0-1,.61,1.22,1.22,0,0,0-.1,1.33,1.78,1.78,0,0,0,.83.75c.31.15.65.26,1,.4a4.25,4.25,0,0,1,.49.21c.22.13.21.14.12.36s-.22.45-.35.66a6.15,6.15,0,0,1-1.5,1.79A4.44,4.44,0,0,1,12,27a1,1,0,0,0-.83.86,1.2,1.2,0,0,0,.39,1,2.41,2.41,0,0,0,.86.54A7.67,7.67,0,0,0,14,29.8c.23,0,.23,0,.27.25a2,2,0,0,0,.23.72,1,1,0,0,0,.93.5,7,7,0,0,0,.78-.11l.85-.08a1.64,1.64,0,0,1,.38,0,2.72,2.72,0,0,1,.57.1,3.91,3.91,0,0,1,1,.6,8.07,8.07,0,0,0,1.46.9,4.72,4.72,0,0,0,1.52.38c.31,0,.62,0,.93,0a5.13,5.13,0,0,0,.67-.09,5.83,5.83,0,0,0,2.08-1c.28-.2.57-.39.86-.57a2,2,0,0,1,1-.3,5.36,5.36,0,0,1,1.2.05,4.16,4.16,0,0,0,1,.1,1,1,0,0,0,.79-.48,2.4,2.4,0,0,0,.23-.7c0-.24,0-.24.26-.28l.14,0A5.89,5.89,0,0,0,33,29.19a1.74,1.74,0,0,0,.67-.59,1,1,0,0,0,.11-1,1,1,0,0,0-.82-.65,4.19,4.19,0,0,1-1.6-.63,5.21,5.21,0,0,1-1.1-.94c-.17-.21-.35-.42-.51-.64A7,7,0,0,1,29,23.61c-.09-.18-.07-.25.1-.36l.17-.09c.27-.1.55-.18.82-.29a2.92,2.92,0,0,0,1.13-.69,1.21,1.21,0,0,0,.3-1.24,1.32,1.32,0,0,0-.81-.85A1.67,1.67,0,0,0,29.55,20a5,5,0,0,0-.54.21l-.19.05c0-.1,0-.16,0-.23,0-.28,0-.56,0-.84s0-.53,0-.8,0-.41,0-.62-.05-.65-.09-1a4.69,4.69,0,0,0-.7-1.84,5.94,5.94,0,0,0-1.2-1.44,5.77,5.77,0,0,0-1.17-.8,6.27,6.27,0,0,0-1.24-.49,7,7,0,0,0-1.76-.26c-.29,0-.58,0-.87,0s-.46,0-.68.07a7.08,7.08,0,0,0-1.57.46,5.79,5.79,0,0,0-1.78,1.19,5,5,0,0,0-.53.61,5.49,5.49,0,0,0-.9,1.6,5.91,5.91,0,0,0-.31,1.87c0,.41,0,.83,0,1.25,0,.25,0,.5,0,.76S16.15,20.07,16.16,20.26Z" fill="#ffff3d"/></g></g></svg>