<svg xmlns="http://www.w3.org/2000/svg" viewBox="0 0 45 45"><title>tiktokAsset 6</title><g id="Layer_2" data-name="Layer 2"><g id="Layer_1-2" data-name="Layer 1"><circle cx="22.5" cy="22.5" r="22.5" fill="azure"/><path d="M31.71,17.13v3a14.62,14.62,0,0,1-2.48-.33,9.54,9.54,0,0,1-2.42-.95l-.7-.44v7.93a7.64,7.64,0,0,1-.49,2.46A7.53,7.53,0,0,1,24.26,31a7.58,7.58,0,0,1-5.57,2.44,7.9,7.9,0,0,1-4.14-1.19h0a6.87,6.87,0,0,1-.58-.63,7.64,7.64,0,0,1-1.11-1.92h0a7.69,7.69,0,0,1-.44-2.56,6.88,6.88,0,0,1,.9-3.25,7.66,7.66,0,0,1,1.74-2,7,7,0,0,1,2.06-1.17,7.1,7.1,0,0,1,2.57-.52v3a3.61,3.61,0,0,0-2.9.4,3.18,3.18,0,0,0-.11,5.37,4.49,4.49,0,0,0,.42.24,3,3,0,0,0,.76.7,3.42,3.42,0,0,0,3.42.32A3.15,3.15,0,0,0,23,28.32a4.49,4.49,0,0,0,.18-1.54V11.84h2.94a5.21,5.21,0,0,0,1.34,2.64,6.62,6.62,0,0,0,1.2,1,6.51,6.51,0,0,0,1.63,1.2A6.63,6.63,0,0,0,31.71,17.13Z"/><path d="M15.25,26a3.3,3.3,0,0,1,1.53-2.49,3.61,3.61,0,0,1,2.9-.4v-3a6.57,6.57,0,0,1,1.17.07V24.1a3.58,3.58,0,0,0-2.9.39A3.29,3.29,0,0,0,16.43,27a3.47,3.47,0,0,0,.66,2.18,4.49,4.49,0,0,1-.42-.24A3.3,3.3,0,0,1,15.25,26ZM27.5,14.48a5.29,5.29,0,0,1-1.34-2.64h1.12a4.83,4.83,0,0,0,1.4,3.59l0,0A6.62,6.62,0,0,1,27.5,14.48Zm5.38,2.76v3.84a14.62,14.62,0,0,1-2.48-.33A9.36,9.36,0,0,1,28,19.8l-.71-.44v7.93a7.64,7.64,0,0,1-.49,2.46,7.42,7.42,0,0,1-1.36,2.16,7.62,7.62,0,0,1-5.57,2.43,7.79,7.79,0,0,1-4.14-1.19,8.32,8.32,0,0,1-1.18-.95h0a7.9,7.9,0,0,0,4.14,1.19A7.58,7.58,0,0,0,24.26,31a7.53,7.53,0,0,0,1.36-2.15,7.93,7.93,0,0,0,.49-2.46V18.42l.7.44a9.54,9.54,0,0,0,2.42.95,14.62,14.62,0,0,0,2.48.33v-3A3.81,3.81,0,0,0,32.88,17.24Z" fill="#ee1d52"/><path d="M17.11,20.63a7,7,0,0,0-2.06,1.17,7.7,7.7,0,0,0-1.74,2,6.82,6.82,0,0,0-.9,3.24,7.76,7.76,0,0,0,.44,2.57h0A7.64,7.64,0,0,0,14,31.57a7,7,0,0,0,.58.64,8.55,8.55,0,0,1-1.76-1.58,7.65,7.65,0,0,1-1.1-1.91h0a7.76,7.76,0,0,1-.44-2.57,6.82,6.82,0,0,1,.9-3.24,7.7,7.7,0,0,1,1.74-2,7,7,0,0,1,2.06-1.17,7.39,7.39,0,0,1,1.46-.42,7.91,7.91,0,0,1,2.28,0v.87A7.1,7.1,0,0,0,17.11,20.63Z" fill="#69c9d0"/><path d="M26.16,11.84H23.22V26.78A4.46,4.46,0,0,1,23,28.32a3.18,3.18,0,0,1-1.77,1.86,3.42,3.42,0,0,1-3.42-.32,3.17,3.17,0,0,1-.76-.7,3.41,3.41,0,0,0,3,.08,3.21,3.21,0,0,0,1.77-1.86,4.49,4.49,0,0,0,.18-1.54V10.89H26.1A3.78,3.78,0,0,0,26.16,11.84Zm5.55,4.46v.83a6.55,6.55,0,0,1-1.37-.48,6.43,6.43,0,0,1-1.64-1.2c.15.09.3.18.46.26A5.53,5.53,0,0,0,31.71,16.3Z" fill="#69c9d0"/></g></g></svg>