<svg xmlns="http://www.w3.org/2000/svg" viewBox="0 0 45 45"><title>BUI44Asset 1</title><g id="Layer_2" data-name="Layer 2"><g id="Layer_1-2" data-name="Layer 1"><circle cx="22.5" cy="22.5" r="22.5" fill="azure"/><path d="M13.89,31.1c.1-.37.18-.7.27-1,.28-1,.58-2.08.85-3.12a.81.81,0,0,0-.06-.51,8.57,8.57,0,1,1,3.71,3.62,1,1,0,0,0-.53-.06C15.86,30.58,14.35,31,13.89,31.1Zm2-2c.85-.23,1.64-.42,2.42-.64a.72.72,0,0,1,.59.08,7,7,0,0,0,4.75.9,7.18,7.18,0,1,0-7.39-3.63,1.53,1.53,0,0,1,.16,1.37C16.21,27.81,16.07,28.44,15.89,29.13Z" fill="#008b8b" fill-rule="evenodd"/><path d="M24.76,26.49c-1.67-.06-4.34-1.38-6.17-4.56a2.57,2.57,0,0,1,.4-3.3,1.17,1.17,0,0,1,1.1-.16c.09,0,.19.15.24.26.24.55.48,1.11.69,1.67.11.3-.09.59-.53,1.09a.37.37,0,0,0-.06.48,5.83,5.83,0,0,0,3,2.56.36.36,0,0,0,.46-.12c.68-.84.75-1.08,1.11-.91,1.74.83,1.87.87,1.88,1.06A1.89,1.89,0,0,1,24.76,26.49Z" fill="#008b8b" fill-rule="evenodd"/></g></g></svg>